<mxfile host="app.diagrams.net" modified="2023-06-27T13:56:46.820Z" agent="Mozilla/5.0 (Windows NT 10.0; Win64; x64) AppleWebKit/537.36 (KHTML, like Gecko) Chrome/114.0.0.0 Safari/537.36 Edg/114.0.1823.58" etag="dIaDPZygZCz2kULaPc5K" version="21.5.0" type="github">
  <diagram name="第 1 页" id="YF57faFyNAjS20Efq1IB">
    <mxGraphModel dx="2310" dy="1343" grid="1" gridSize="10" guides="1" tooltips="1" connect="1" arrows="1" fold="1" page="1" pageScale="1" pageWidth="827" pageHeight="1169" math="0" shadow="0">
      <root>
        <mxCell id="0" />
        <mxCell id="1" parent="0" />
        <mxCell id="nQQllqZZDC8e5ljnKt0x-3" style="edgeStyle=orthogonalEdgeStyle;rounded=0;orthogonalLoop=1;jettySize=auto;html=1;" edge="1" parent="1" source="nQQllqZZDC8e5ljnKt0x-1" target="nQQllqZZDC8e5ljnKt0x-2">
          <mxGeometry relative="1" as="geometry" />
        </mxCell>
        <mxCell id="nQQllqZZDC8e5ljnKt0x-4" value="Command" style="edgeLabel;html=1;align=center;verticalAlign=middle;resizable=0;points=[];" vertex="1" connectable="0" parent="nQQllqZZDC8e5ljnKt0x-3">
          <mxGeometry x="-0.1514" y="2" relative="1" as="geometry">
            <mxPoint as="offset" />
          </mxGeometry>
        </mxCell>
        <mxCell id="nQQllqZZDC8e5ljnKt0x-1" value="Docker Client" style="ellipse;whiteSpace=wrap;html=1;fillColor=#cce5ff;strokeColor=#36393d;" vertex="1" parent="1">
          <mxGeometry x="320" y="220" width="120" height="50" as="geometry" />
        </mxCell>
        <mxCell id="nQQllqZZDC8e5ljnKt0x-6" style="edgeStyle=orthogonalEdgeStyle;rounded=0;orthogonalLoop=1;jettySize=auto;html=1;entryX=0.5;entryY=0;entryDx=0;entryDy=0;" edge="1" parent="1" source="nQQllqZZDC8e5ljnKt0x-2" target="nQQllqZZDC8e5ljnKt0x-5">
          <mxGeometry relative="1" as="geometry">
            <Array as="points">
              <mxPoint x="380" y="430" />
              <mxPoint x="380" y="430" />
            </Array>
          </mxGeometry>
        </mxCell>
        <mxCell id="nQQllqZZDC8e5ljnKt0x-7" value="gRPC" style="edgeLabel;html=1;align=center;verticalAlign=middle;resizable=0;points=[];" vertex="1" connectable="0" parent="nQQllqZZDC8e5ljnKt0x-6">
          <mxGeometry x="-0.3454" relative="1" as="geometry">
            <mxPoint y="10" as="offset" />
          </mxGeometry>
        </mxCell>
        <mxCell id="nQQllqZZDC8e5ljnKt0x-2" value="Dockerd" style="rounded=0;whiteSpace=wrap;html=1;" vertex="1" parent="1">
          <mxGeometry x="320" y="340" width="120" height="40" as="geometry" />
        </mxCell>
        <mxCell id="nQQllqZZDC8e5ljnKt0x-20" style="edgeStyle=orthogonalEdgeStyle;rounded=0;orthogonalLoop=1;jettySize=auto;html=1;entryX=0.5;entryY=0;entryDx=0;entryDy=0;exitX=0.5;exitY=1;exitDx=0;exitDy=0;dashed=1;dashPattern=8 8;" edge="1" parent="1" source="nQQllqZZDC8e5ljnKt0x-5" target="nQQllqZZDC8e5ljnKt0x-8">
          <mxGeometry relative="1" as="geometry">
            <Array as="points">
              <mxPoint x="380" y="530" />
              <mxPoint x="180" y="530" />
            </Array>
          </mxGeometry>
        </mxCell>
        <mxCell id="nQQllqZZDC8e5ljnKt0x-21" style="edgeStyle=orthogonalEdgeStyle;rounded=0;orthogonalLoop=1;jettySize=auto;html=1;" edge="1" parent="1" target="nQQllqZZDC8e5ljnKt0x-9">
          <mxGeometry relative="1" as="geometry">
            <mxPoint x="380" y="510" as="sourcePoint" />
            <Array as="points">
              <mxPoint x="380" y="530" />
              <mxPoint x="280" y="530" />
            </Array>
          </mxGeometry>
        </mxCell>
        <mxCell id="nQQllqZZDC8e5ljnKt0x-26" value="&lt;font style=&quot;font-size: 11px;&quot;&gt;fork&lt;/font&gt;" style="edgeLabel;html=1;align=center;verticalAlign=middle;resizable=0;points=[];fontSize=8;" vertex="1" connectable="0" parent="nQQllqZZDC8e5ljnKt0x-21">
          <mxGeometry x="0.6979" relative="1" as="geometry">
            <mxPoint y="-9" as="offset" />
          </mxGeometry>
        </mxCell>
        <mxCell id="nQQllqZZDC8e5ljnKt0x-23" style="edgeStyle=orthogonalEdgeStyle;rounded=0;orthogonalLoop=1;jettySize=auto;html=1;entryX=0.5;entryY=0;entryDx=0;entryDy=0;" edge="1" parent="1" source="nQQllqZZDC8e5ljnKt0x-5" target="nQQllqZZDC8e5ljnKt0x-16">
          <mxGeometry relative="1" as="geometry">
            <Array as="points">
              <mxPoint x="380" y="530" />
              <mxPoint x="500" y="530" />
            </Array>
          </mxGeometry>
        </mxCell>
        <mxCell id="nQQllqZZDC8e5ljnKt0x-24" style="edgeStyle=orthogonalEdgeStyle;rounded=0;orthogonalLoop=1;jettySize=auto;html=1;exitX=0.5;exitY=1;exitDx=0;exitDy=0;entryX=0.5;entryY=0;entryDx=0;entryDy=0;dashed=1;dashPattern=8 8;" edge="1" parent="1" source="nQQllqZZDC8e5ljnKt0x-5" target="nQQllqZZDC8e5ljnKt0x-18">
          <mxGeometry relative="1" as="geometry">
            <Array as="points">
              <mxPoint x="380" y="530" />
              <mxPoint x="610" y="530" />
            </Array>
          </mxGeometry>
        </mxCell>
        <mxCell id="nQQllqZZDC8e5ljnKt0x-25" value="run" style="edgeLabel;html=1;align=center;verticalAlign=middle;resizable=0;points=[];" vertex="1" connectable="0" parent="nQQllqZZDC8e5ljnKt0x-24">
          <mxGeometry x="-0.9125" relative="1" as="geometry">
            <mxPoint as="offset" />
          </mxGeometry>
        </mxCell>
        <mxCell id="nQQllqZZDC8e5ljnKt0x-5" value="Containerd" style="rounded=0;whiteSpace=wrap;html=1;" vertex="1" parent="1">
          <mxGeometry x="320" y="460" width="120" height="40" as="geometry" />
        </mxCell>
        <mxCell id="nQQllqZZDC8e5ljnKt0x-14" style="edgeStyle=orthogonalEdgeStyle;rounded=0;orthogonalLoop=1;jettySize=auto;html=1;entryX=0.547;entryY=0.017;entryDx=0;entryDy=0;entryPerimeter=0;" edge="1" parent="1" source="nQQllqZZDC8e5ljnKt0x-8" target="nQQllqZZDC8e5ljnKt0x-12">
          <mxGeometry relative="1" as="geometry" />
        </mxCell>
        <mxCell id="nQQllqZZDC8e5ljnKt0x-8" value="Shim" style="rounded=0;whiteSpace=wrap;html=1;" vertex="1" parent="1">
          <mxGeometry x="150" y="598" width="60" height="30" as="geometry" />
        </mxCell>
        <mxCell id="nQQllqZZDC8e5ljnKt0x-13" style="edgeStyle=orthogonalEdgeStyle;rounded=0;orthogonalLoop=1;jettySize=auto;html=1;entryX=0.552;entryY=0.017;entryDx=0;entryDy=0;entryPerimeter=0;" edge="1" parent="1" source="nQQllqZZDC8e5ljnKt0x-9" target="nQQllqZZDC8e5ljnKt0x-12">
          <mxGeometry relative="1" as="geometry" />
        </mxCell>
        <mxCell id="nQQllqZZDC8e5ljnKt0x-9" value="Runc" style="rounded=0;whiteSpace=wrap;html=1;" vertex="1" parent="1">
          <mxGeometry x="250" y="598" width="60" height="30" as="geometry" />
        </mxCell>
        <mxCell id="nQQllqZZDC8e5ljnKt0x-12" value="Container 1" style="shape=document;whiteSpace=wrap;html=1;boundedLbl=1;" vertex="1" parent="1">
          <mxGeometry x="150" y="688" width="160" height="40" as="geometry" />
        </mxCell>
        <mxCell id="nQQllqZZDC8e5ljnKt0x-15" style="edgeStyle=orthogonalEdgeStyle;rounded=0;orthogonalLoop=1;jettySize=auto;html=1;entryX=0.547;entryY=0.017;entryDx=0;entryDy=0;entryPerimeter=0;" edge="1" parent="1" source="nQQllqZZDC8e5ljnKt0x-16" target="nQQllqZZDC8e5ljnKt0x-19">
          <mxGeometry relative="1" as="geometry" />
        </mxCell>
        <mxCell id="nQQllqZZDC8e5ljnKt0x-16" value="Runc" style="rounded=0;whiteSpace=wrap;html=1;" vertex="1" parent="1">
          <mxGeometry x="480" y="598" width="60" height="30" as="geometry" />
        </mxCell>
        <mxCell id="nQQllqZZDC8e5ljnKt0x-17" style="edgeStyle=orthogonalEdgeStyle;rounded=0;orthogonalLoop=1;jettySize=auto;html=1;entryX=0.552;entryY=0.017;entryDx=0;entryDy=0;entryPerimeter=0;" edge="1" parent="1" source="nQQllqZZDC8e5ljnKt0x-18" target="nQQllqZZDC8e5ljnKt0x-19">
          <mxGeometry relative="1" as="geometry" />
        </mxCell>
        <mxCell id="nQQllqZZDC8e5ljnKt0x-18" value="Shim" style="rounded=0;whiteSpace=wrap;html=1;" vertex="1" parent="1">
          <mxGeometry x="580" y="598" width="60" height="30" as="geometry" />
        </mxCell>
        <mxCell id="nQQllqZZDC8e5ljnKt0x-19" value="Container 2" style="shape=document;whiteSpace=wrap;html=1;boundedLbl=1;" vertex="1" parent="1">
          <mxGeometry x="480" y="688" width="160" height="40" as="geometry" />
        </mxCell>
        <mxCell id="nQQllqZZDC8e5ljnKt0x-27" value="&lt;font style=&quot;font-size: 11px;&quot;&gt;fork&lt;/font&gt;" style="edgeLabel;html=1;align=center;verticalAlign=middle;resizable=0;points=[];fontSize=8;" vertex="1" connectable="0" parent="1">
          <mxGeometry x="180" y="560.0003448275863" as="geometry" />
        </mxCell>
        <mxCell id="nQQllqZZDC8e5ljnKt0x-29" value="&lt;font style=&quot;font-size: 11px;&quot;&gt;fork&lt;/font&gt;" style="edgeLabel;html=1;align=center;verticalAlign=middle;resizable=0;points=[];fontSize=8;" vertex="1" connectable="0" parent="1">
          <mxGeometry x="500" y="560.0003448275863" as="geometry" />
        </mxCell>
        <mxCell id="nQQllqZZDC8e5ljnKt0x-31" value="&lt;font style=&quot;font-size: 11px;&quot;&gt;fork&lt;/font&gt;" style="edgeLabel;html=1;align=center;verticalAlign=middle;resizable=0;points=[];fontSize=8;" vertex="1" connectable="0" parent="1">
          <mxGeometry x="290" y="570.3103448275863" as="geometry">
            <mxPoint x="317" y="-12" as="offset" />
          </mxGeometry>
        </mxCell>
      </root>
    </mxGraphModel>
  </diagram>
</mxfile>
